<svg id="visual" viewBox="0 0 960 540" width="960" height="540" xmlns="http://www.w3.org/2000/svg" xmlns:xlink="http://www.w3.org/1999/xlink" version="1.1"><path d="M0 158L87 217L175 98L262 168L349 249L436 109L524 114L611 190L698 93L785 228L873 120L960 190L960 0L873 0L785 0L698 0L611 0L524 0L436 0L349 0L262 0L175 0L87 0L0 0Z" fill="#00cc8e"></path><path d="M0 357L87 325L175 352L262 314L349 336L436 298L524 309L611 282L698 298L785 314L873 325L960 341L960 188L873 118L785 226L698 91L611 188L524 112L436 107L349 247L262 166L175 96L87 215L0 156Z" fill="#00b98a"></path><path d="M0 460L87 390L175 406L262 438L349 401L436 422L524 417L611 357L698 395L785 422L873 368L960 390L960 339L873 323L785 312L698 296L611 280L524 307L436 296L349 334L262 312L175 350L87 323L0 355Z" fill="#00a784"></path><path d="M0 503L87 503L175 503L262 509L349 460L436 509L524 503L611 449L698 476L785 465L873 465L960 449L960 388L873 366L785 420L698 393L611 355L524 415L436 420L349 399L262 436L175 404L87 388L0 458Z" fill="#00957c"></path><path d="M0 541L87 541L175 541L262 541L349 541L436 541L524 541L611 541L698 541L785 541L873 541L960 541L960 447L873 463L785 463L698 474L611 447L524 501L436 507L349 458L262 507L175 501L87 501L0 501Z" fill="#038373"></path></svg>