<?xml version="1.0" standalone="no"?>
<svg xmlns:xlink="http://www.w3.org/1999/xlink" id="wave" style="transform:rotate(0deg); transition: 0.3s" viewBox="0 0 1440 490" version="1.1" xmlns="http://www.w3.org/2000/svg"><defs><linearGradient id="sw-gradient-0" x1="0" x2="0" y1="1" y2="0"><stop stop-color="rgba(0, 216.65, 17.253, 1)" offset="0%"/><stop stop-color="rgba(11, 255, 146.16, 1)" offset="100%"/></linearGradient></defs><path style="transform:translate(0, 0px); opacity:1" fill="url(#sw-gradient-0)" d="M0,392L10,343C20,294,40,196,60,155.2C80,114,100,131,120,187.8C140,245,160,343,180,351.2C200,359,220,278,240,236.8C260,196,280,196,300,171.5C320,147,340,98,360,98C380,98,400,147,420,163.3C440,180,460,163,480,163.3C500,163,520,180,540,204.2C560,229,580,261,600,277.7C620,294,640,294,660,294C680,294,700,294,720,277.7C740,261,760,229,780,253.2C800,278,820,359,840,367.5C860,376,880,310,900,261.3C920,212,940,180,960,212.3C980,245,1000,343,1020,392C1040,441,1060,441,1080,432.8C1100,425,1120,408,1140,400.2C1160,392,1180,392,1200,383.8C1220,376,1240,359,1260,302.2C1280,245,1300,147,1320,98C1340,49,1360,49,1380,98C1400,147,1420,245,1430,294L1440,343L1440,490L1430,490C1420,490,1400,490,1380,490C1360,490,1340,490,1320,490C1300,490,1280,490,1260,490C1240,490,1220,490,1200,490C1180,490,1160,490,1140,490C1120,490,1100,490,1080,490C1060,490,1040,490,1020,490C1000,490,980,490,960,490C940,490,920,490,900,490C880,490,860,490,840,490C820,490,800,490,780,490C760,490,740,490,720,490C700,490,680,490,660,490C640,490,620,490,600,490C580,490,560,490,540,490C520,490,500,490,480,490C460,490,440,490,420,490C400,490,380,490,360,490C340,490,320,490,300,490C280,490,260,490,240,490C220,490,200,490,180,490C160,490,140,490,120,490C100,490,80,490,60,490C40,490,20,490,10,490L0,490Z"/></svg>