<svg xmlns="http://www.w3.org/2000/svg" viewBox="0 0 32 32" id="abacus"><path d="M27.5,2A2.5,2.5,0,0,0,25,4.5V6h-.71a2.5,2.5,0,0,0-4.58,0H18.29a2.5,2.5,0,0,0-4.58,0H12.29A2.5,2.5,0,0,0,7.71,6H7V4.5a2.5,2.5,0,0,0-5,0v23a2.5,2.5,0,0,0,5,0V26h.71a2.5,2.5,0,0,0,4.58,0h1.42a2.5,2.5,0,0,0,4.58,0h1.42a2.5,2.5,0,0,0,4.58,0H25v1.5a2.5,2.5,0,0,0,5,0V4.5A2.5,2.5,0,0,0,27.5,2ZM22,6.5a.5.5,0,1,1-.5.5A.5.5,0,0,1,22,6.5Zm-6,0a.5.5,0,1,1-.5.5A.5.5,0,0,1,16,6.5Zm-6,0a.5.5,0,1,1-.5.5A.5.5,0,0,1,10,6.5Zm0,19a.5.5,0,1,1,.5-.5A.5.5,0,0,1,10,25.5Zm6,0a.5.5,0,1,1,.5-.5A.5.5,0,0,1,16,25.5Zm6,0a.5.5,0,1,1,.5-.5A.5.5,0,0,1,22,25.5ZM25,24h-.71a2.5,2.5,0,0,0-4.58,0H18.29a2.5,2.5,0,0,0-4.58,0H12.29a2.5,2.5,0,0,0-4.58,0H7V20h.71a2.5,2.5,0,0,0,4.58,0h1.42a2.5,2.5,0,0,0,4.58,0h1.42a2.5,2.5,0,0,0,4.58,0H25ZM9.5,19a.5.5,0,1,1,.5.5A.5.5,0,0,1,9.5,19Zm6,0a.5.5,0,1,1,.5.5A.5.5,0,0,1,15.5,19Zm6,0a.5.5,0,1,1,.5.5A.5.5,0,0,1,21.5,19ZM25,18h-.71a2.5,2.5,0,0,0-4.58,0H18.29a2.5,2.5,0,0,0-4.58,0H12.29a2.5,2.5,0,0,0-4.58,0H7V14h.71a2.5,2.5,0,0,0,4.58,0h1.42a2.5,2.5,0,0,0,4.58,0h1.42a2.5,2.5,0,0,0,4.58,0H25ZM9.5,13a.5.5,0,1,1,.5.5A.5.5,0,0,1,9.5,13Zm6,0a.5.5,0,1,1,.5.5A.5.5,0,0,1,15.5,13Zm6,0a.5.5,0,1,1,.5.5A.5.5,0,0,1,21.5,13ZM25,12h-.71a2.5,2.5,0,0,0-4.58,0H18.29a2.5,2.5,0,0,0-4.58,0H12.29a2.5,2.5,0,0,0-4.58,0H7V8h.71a2.5,2.5,0,0,0,4.58,0h1.42a2.5,2.5,0,0,0,4.58,0h1.42a2.5,2.5,0,0,0,4.58,0H25Z"></path></svg>